Coordinates
version=1
nRows=19
nColumns=38
inDegrees=no

Units are S.I. units (second, meters, Newtons, ...)
If the header above contains a line with 'inDegrees', this indicates whether rotational values are in degrees (yes) or radians (no).

endheader
time	pelvis_tilt	pelvis_list	pelvis_rotation	pelvis_tx	pelvis_ty	pelvis_tz	hip_flexion_r	hip_adduction_r	hip_rotation_r	knee_angle_r	ankle_angle_r	subtalar_angle_r	mtp_angle_r	hip_flexion_l	hip_adduction_l	hip_rotation_l	knee_angle_l	ankle_angle_l	subtalar_angle_l	mtp_angle_l	lumbar_extension	lumbar_bending	lumbar_rotation	arm_flex_r	arm_add_r	arm_rot_r	elbow_flex_r	pro_sup_r	wrist_flex_r	wrist_dev_r	arm_flex_l	arm_add_l	arm_rot_l	elbow_flex_l	pro_sup_l	wrist_flex_l	wrist_dev_l
4.125	-0.154773	-0.0671718	-0.0889771	1.1003	0.95285	-0.313964	0.568263	0.102327	-0.193526	-0.822082	0.63521	0.1	4.5289e-06	0.324287	-0.215012	-0.158908	-2.35074	0.130782	0.1	-5.25605e-07	-0.107302	0.149767	0.056151	-0.53385	-0.216539	-0.243351	1.43246	1.14997	0.00630181	-0.00866287	-0.646043	-0.243954	0.000613154	1.50331	1.65309	0.00718309	0.011921
4.13333	-0.161701	-0.0655819	-0.0838733	1.09698	0.948513	-0.313874	0.546792	0.103942	-0.182722	-0.850891	0.692897	0.1	4.5289e-06	0.407399	-0.225144	-0.141226	-2.39802	0.163401	0.1	-5.25605e-07	-0.102229	0.144427	0.0764397	-0.495181	-0.221932	-0.22454	1.44404	1.15576	0.00630181	-0.00866287	-0.655698	-0.24639	-0.0108353	1.45064	1.63963	0.00718309	0.011921
4.14167	-0.169365	-0.0618886	-0.0797209	1.09378	0.945219	-0.313716	0.519604	0.102473	-0.175265	-0.865628	0.736679	0.1	4.5289e-06	0.493371	-0.231636	-0.126178	-2.42992	0.194308	0.1	-5.25605e-07	-0.0957944	0.136302	0.0985639	-0.458656	-0.225809	-0.210224	1.46277	1.1638	0.00630181	-0.00866287	-0.667887	-0.249867	-0.024478	1.41013	1.62639	0.00718309	0.011921
4.15	-0.177203	-0.0556732	-0.07673	1.09092	0.943097	-0.313525	0.486441	0.097034	-0.170515	-0.867177	0.765759	0.1	4.5289e-06	0.579412	-0.2341	-0.115496	-2.44535	0.222772	0.1	-5.25605e-07	-0.0882425	0.125105	0.122148	-0.425425	-0.228359	-0.200713	1.48906	1.17536	0.00630181	-0.00866287	-0.683543	-0.254017	-0.0405818	1.38304	1.61476	0.00718309	0.011921
4.15833	-0.184891	-0.0466609	-0.0747822	1.08859	0.942224	-0.31335	0.447605	0.0870682	-0.168187	-0.857004	0.779738	0.1	4.5289e-06	0.663013	-0.23237	-0.110302	-2.44389	0.248043	0.1	-5.25605e-07	-0.0795987	0.110726	0.146489	-0.396415	-0.229806	-0.195795	1.52281	1.19101	0.00630181	-0.00866287	-0.703244	-0.25849	-0.0591478	1.36973	1.60561	0.00718309	0.011921
4.16667	-0.192339	-0.034796	-0.0734252	1.08691	0.942623	-0.313236	0.403818	0.0724401	-0.168424	-0.836805	0.77833	0.1	4.5289e-06	0.742134	-0.226508	-0.110998	-2.42581	0.269449	0.1	-5.25605e-07	-0.0697384	0.0932799	0.170618	-0.372255	-0.23039	-0.194758	1.56337	1.21044	0.00630181	-0.00866287	-0.727157	-0.262979	-0.0799063	1.3696	1.5991	0.00718309	0.011921
4.175	-0.199632	-0.0202496	-0.071922	1.08594	0.944262	-0.313228	0.356032	0.0534332	-0.17172	-0.808235	0.761238	0.1	4.5289e-06	0.81528	-0.216714	-0.117296	-2.39198	0.286429	0.1	-5.25605e-07	-0.0584908	0.0730777	0.193397	-0.353239	-0.230342	-0.196509	1.60968	1.23255	0.00630181	-0.00866287	-0.755061	-0.267225	-0.102365	1.38123	1.59483	0.00718309	0.011921
4.18333	-0.206969	-0.00338207	-0.069356	1.0857	0.947052	-0.313367	0.305306	0.0306634	-0.178775	-0.772776	0.728208	0.1	4.5289e-06	0.881506	-0.203221	-0.128364	-2.34365	0.298595	0.1	-5.25605e-07	-0.0457251	0.0505618	0.213645	-0.339342	-0.229867	-0.199759	1.66029	1.25572	0.00630181	-0.00866287	-0.786438	-0.271019	-0.125893	1.40266	1.59188	0.00718309	0.011921
4.19167	-0.214618	0.0153053	-0.0647843	1.08615	0.950842	-0.313696	0.252757	0.00499167	-0.190224	-0.73178	0.679204	0.1	4.5289e-06	0.940381	-0.186239	-0.143023	-2.28235	0.305798	0.1	-5.25605e-07	-0.0313885	0.0262386	0.230286	-0.330266	-0.229131	-0.203222	1.71352	1.27835	0.00630181	-0.00866287	-0.820592	-0.274192	-0.149817	1.43166	1.58919	0.00718309	0.011921
4.2	-0.222898	0.0352009	-0.0574187	1.08718	0.955429	-0.314253	0.199617	-0.0225335	-0.206285	-0.686644	0.614677	0.1	4.5289e-06	0.991939	-0.165992	-0.159953	-2.20964	0.30818	0.1	-5.25605e-07	-0.0154971	0.00064932	0.242514	-0.325493	-0.228265	-0.205802	1.76759	1.29917	0.00630181	-0.00866287	-0.856762	-0.276599	-0.173517	1.46604	1.58577	0.00718309	0.011921
4.20833	-0.232157	0.0555907	-0.0468043	1.08869	0.960557	-0.315065	0.147305	-0.0507025	-0.226421	-0.639077	0.5359	0.1	4.5289e-06	1.03659	-0.142837	-0.177858	-2.12706	0.306211	0.1	-5.25605e-07	0.00188373	-0.0256129	0.249933	-0.324355	-0.227375	-0.206714	1.82067	1.31753	0.00630181	-0.00866287	-0.894194	-0.278106	-0.1965	1.50387	1.58096	0.00718309	0.011921
4.21667	-0.242718	0.07565	-0.0329569	1.09052	0.965952	-0.316135	0.0974555	-0.0781656	-0.249102	-0.591327	0.44529	0.1	4.5289e-06	1.07495	-0.117401	-0.195598	-2.03597	0.300676	0.1	-5.25605e-07	0.020636	-0.0518615	0.252648	-0.326082	-0.226552	-0.205538	1.87106	1.33335	0.00630181	-0.00866287	-0.932166	-0.278572	-0.218429	1.54359	1.57452	0.00718309	0.011921
4.225	-0.254782	0.09445	-0.0164231	1.09249	0.971354	-0.317421	0.0518254	-0.103474	-0.271774	-0.546265	0.346563	0.1	4.5289e-06	1.10768	-0.0906884	-0.212297	-1.93754	0.292641	0.1	-5.25605e-07	0.0405388	-0.0772795	0.251277	-0.329854	-0.225887	-0.202212	1.91716	1.34696	0.00630181	-0.00866287	-0.969967	-0.277843	-0.239115	1.58399	1.56663	0.00718309	0.011921
4.23333	-0.268298	0.11101	0.0017613	1.09441	0.976553	-0.318826	0.0120725	-0.12517	-0.29112	-0.507236	0.244609	0.1	4.5289e-06	1.1352	-0.0640521	-0.227404	-1.83277	0.283322	0.1	-5.25605e-07	0.0611771	-0.10092	0.24687	-0.334835	-0.225464	-0.196982	1.95763	1.35892	0.00630181	-0.00866287	-1.00685	-0.275767	-0.258451	1.62417	1.55782	0.00718309	0.011921
4.24167	-0.282849	0.124391	0.0202162	1.0961	0.981406	-0.3202	-0.0205383	-0.141919	-0.303617	-0.477712	0.145083	0.1	4.5289e-06	1.15753	-0.0390477	-0.240731	-1.72243	0.273868	0.1	-5.25605e-07	0.081849	-0.121768	0.240745	-0.340228	-0.225346	-0.190328	1.99136	1.36973	0.00630181	-0.00866287	-1.04202	-0.272225	-0.276343	1.66343	1.5488	0.00718309	0.011921
4.25	-0.297608	0.133815	0.0374398	1.09742	0.985829	-0.321369	-0.0453895	-0.152669	-0.30626	-0.460864	0.05378	0.1	4.5289e-06	1.1742	-0.0171814	-0.252443	-1.60717	0.26509	0.1	-5.25605e-07	0.101523	-0.138851	0.234271	-0.345333	-0.225553	-0.182881	2.01754	1.3797	0.00630181	-0.00866287	-1.07459	-0.267168	-0.292639	1.70119	1.54031	0.00718309	0.011921
4.25833	-0.311384	0.138778	0.0520642	1.09833	0.989794	-0.322175	-0.0626452	-0.156774	-0.297203	-0.459136	-0.0241498	0.1	4.5289e-06	1.18425	0.000347848	-0.263035	-1.48763	0.257243	0.1	-5.25605e-07	0.118881	-0.151383	0.228646	-0.349612	-0.226045	-0.175352	2.03567	1.38892	0.00630181	-0.00866287	-1.10365	-0.260657	-0.307096	1.73694	1.53308	0.00718309	0.011921
4.26667	-0.322782	0.139152	0.063088	1.09882	0.993315	-0.322516	-0.0732082	-0.154094	-0.276265	-0.473978	-0.0849351	0.1	4.5289e-06	1.18647	0.0128695	-0.273266	-1.36445	0.249877	0.1	-5.25605e-07	0.132446	-0.158896	0.224718	-0.352765	-0.2267	-0.168453	2.04556	1.39723	0.00630181	-0.00866287	-1.1283	-0.252893	-0.319388	1.77021	1.52759	0.00718309	0.011921
4.275	-0.330433	0.135205	0.0700352	1.09895	0.996434	-0.322371	-0.0785035	-0.145076	-0.245108	-0.505774	-0.126694	0.1	4.5289e-06	1.17963	0.0203716	-0.284051	-1.2385	0.24183	0.1	-5.25605e-07	0.140794	-0.16135	0.222879	-0.354765	-0.227315	-0.162823	2.04734	1.40425	0.00630181	-0.00866287	-1.14778	-0.24422	-0.329154	1.80061	1.52413	0.00718309	0.011921
